<svg id="Layer_1" data-name="Layer 1" xmlns="http://www.w3.org/2000/svg" viewBox="0 0 507.56 509.36"><title>algorand-algo</title><polygon points="88.04 509.36 161.7 381.8 235.37 254.68 308.58 127.12 320.71 106.9 326.1 127.12 348.56 211.11 323.4 254.68 249.74 381.8 176.53 509.36 264.56 509.36 338.23 381.8 376.41 315.77 394.37 381.8 428.51 509.36 507.56 509.36 473.43 381.8 439.29 254.68 430.31 221.89 485.11 127.12 405.15 127.12 402.46 117.68 374.61 13.47 371.02 0 294.21 0 292.41 2.69 220.54 127.12 146.88 254.68 73.66 381.8 0 509.36 88.04 509.36"/></svg>